<?xml version="1.0" encoding="utf-8"?>
<!-- Generator: Adobe Illustrator 26.1.0, SVG Export Plug-In . SVG Version: 6.00 Build 0)  -->
<svg version="1.1" id="图层_1" xmlns="http://www.w3.org/2000/svg" xmlns:xlink="http://www.w3.org/1999/xlink" x="0px" y="0px"
	 viewBox="0 0 61 58" style="enable-background:new 0 0 61 58;" xml:space="preserve">
<style type="text/css">
	.st0{fill:#0E548B;}
	.st1{fill:#F4792B;}
</style>
<g>
	<path class="st0" d="M31.5,31.3c0.1-1.9,1-3.6,2.4-4.7c1.4-1.2,3.2-1.9,5.2-1.9c2,0,3.9,0.7,5.2,1.9c1.4,1.2,2.3,2.8,2.4,4.7
		c0.1,1.9-0.7,3.7-2,5.1c-1.4,1.4-3.4,2.2-5.6,2.2s-4.2-0.9-5.6-2.2C32.2,35,31.4,33.2,31.5,31.3z"/>
	<path class="st1" d="M19.4,35.1c0,0.7,0.2,2.2,0.6,3.3c0.7,2.4,2,4.6,3.8,6.5c1.8,2,4,3.6,6.6,4.7c2.7,1.2,5.6,1.8,8.6,1.8
		c3,0,5.9-0.6,8.6-1.8c2.6-1.1,4.8-2.8,6.6-4.7c1.8-1.9,3-4.1,3.8-6.5c0.4-1.2,0.6-2.4,0.7-3.6c0.1-1.2,0.1-2.4-0.1-3.6
		c-0.3-2.3-1.1-4.6-2.4-6.6c-1.2-1.9-2.6-3.5-4.4-4.8l0,0L34,6.1c0,0,0,0,0,0c-1.2-0.9-3.1-0.9-4.4,0c-1.3,0.9-1.4,2.4-0.3,3.3l0,0
		l7.4,6l-22.5,0h0c-1.9,0-3.6,1.2-4,2.8c-0.4,1.6,0.9,2.9,2.8,2.9l0,0l11.4,0L4,36.7l-0.1,0.1c-1.9,1.5-2.5,3.9-1.3,5.5
		c1.2,1.6,3.8,1.6,5.8,0l11.1-9.1C19.5,33.1,19.3,34.4,19.4,35.1z M47.9,39.2c-2.3,2.3-5.5,3.7-9,3.7c-3.5,0-6.7-1.3-9-3.6
		c-1.1-1.1-1.9-2.4-2.4-3.8C27,34,26.8,32.6,27,31.1c0.1-1.4,0.5-2.8,1.2-4c0.7-1.2,1.6-2.3,2.7-3.2c2.2-1.8,5.1-2.8,8-2.8
		c3,0,5.8,1,8,2.8c1.1,0.9,2,2,2.7,3.2c0.7,1.2,1.1,2.6,1.2,4c0.1,1.5-0.1,2.9-0.6,4.3C49.8,36.8,49,38.1,47.9,39.2z"/>
</g>
</svg>
